<?xml version="1.0" encoding="utf-8"?>
<!-- Generator: Adobe Illustrator 26.3.1, SVG Export Plug-In . SVG Version: 6.00 Build 0)  -->
<svg version="1.1" id="レイヤー_1" xmlns="http://www.w3.org/2000/svg" xmlns:xlink="http://www.w3.org/1999/xlink" x="0px"
	 y="0px" viewBox="0 0 80 80" style="enable-background:new 0 0 80 80;" xml:space="preserve">
<style type="text/css">
	.st0{clip-path:url(#SVGID_00000067200061479391159370000006650976357872697271_);}
	.st1{fill:#FFFFFF;}
	.st2{stroke:#000000;stroke-miterlimit:10;}
</style>
<g>
	<g>
		<defs>
			<path id="SVGID_1_" d="M40,79.5C18.2,79.5,0.5,61.8,0.5,40S18.2,0.5,40,0.5"/>
		</defs>
		<clipPath id="SVGID_00000013162074927797083400000014865075887278756499_">
			<use xlink:href="#SVGID_1_"  style="overflow:visible;"/>
		</clipPath>
		<g style="clip-path:url(#SVGID_00000013162074927797083400000014865075887278756499_);">
			<path d="M28.4,47.3H14.5c-3.4,0-6.2-2.8-6.2-6.2c0-3.4,2.8-6.2,6.2-6.2h13.8c3.4,0,6.2,2.8,6.2,6.2
				C34.6,44.5,31.8,47.3,28.4,47.3z M14.5,35.9c-2.9,0-5.2,2.3-5.2,5.2c0,2.9,2.3,5.2,5.2,5.2h13.8c2.9,0,5.2-2.3,5.2-5.2
				c0-2.9-2.3-5.2-5.2-5.2H14.5z"/>
			<path d="M11.9,63.7H0.6c-1,0-1.8-0.8-1.8-1.8v-8.3c0-1,0.8-1.8,1.8-1.8h11.4c1,0,1.8,0.8,1.8,1.8v8.3
				C13.7,62.9,12.9,63.7,11.9,63.7z M0.6,52.8c-0.4,0-0.8,0.4-0.8,0.8v8.3c0,0.4,0.4,0.8,0.8,0.8h11.4c0.4,0,0.8-0.4,0.8-0.8v-8.3
				c0-0.4-0.4-0.8-0.8-0.8H0.6z"/>
			<g>
				<rect x="4.5" y="57.6" width="5.8" height="0.5"/>
				<rect x="4" y="57.1" width="6.7" height="1.5"/>
			</g>
			<path d="M10,31.2c-4.1,0-7.4-3.3-7.4-7.4c0-4.1,3.3-7.4,7.4-7.4s7.4,3.3,7.4,7.4C17.5,27.9,14.2,31.2,10,31.2z M10,17.3
				c-3.6,0-6.5,2.9-6.5,6.5c0,3.6,2.9,6.5,6.5,6.5c3.6,0,6.5-2.9,6.5-6.5C16.5,20.2,13.6,17.3,10,17.3z"/>
			<path d="M10.5,26.9H9.6c-1.5,0-2.7-1.2-2.7-2.7v-0.9c0-1.5,1.2-2.7,2.7-2.7h0.9c1.5,0,2.7,1.2,2.7,2.7v0.9
				C13.2,25.7,12,26.9,10.5,26.9z"/>
			<path d="M34.6,30H22.2V17.6h12.4V30z M23.2,29h10.4V18.6H23.2V29z"/>
			<polygon points="27.5,26.7 24.5,23.7 25.2,23 27.5,25.3 31.6,21.2 32.3,21.9 			"/>
			<g>
				<path d="M27.2,63h-1.3l-1.2-3.6h-3.8L19.7,63h-1.2L22.2,52h1.4L27.2,63z M24.5,58.5l-1.1-3.3c-0.2-0.8-0.4-1.5-0.6-2.1h0
					c-0.1,0.7-0.3,1.4-0.6,2.1l-1.1,3.3H24.5z"/>
				<path d="M34,61.1c0,0.7,0,1.3,0.1,1.9H33l-0.1-1h0c-0.4,0.6-1.2,1.2-2.3,1.2c-1.5,0-2.3-1.1-2.3-2.2c0-1.9,1.7-2.9,4.6-2.9
					c0-0.7,0-2.2-1.8-2.2c-0.7,0-1.4,0.2-1.9,0.6l-0.3-0.8c0.6-0.4,1.5-0.7,2.4-0.7c2.2,0,2.8,1.6,2.8,3.1V61.1z M32.8,58.9
					c-1.5,0-3.4,0.2-3.4,1.9c0,1,0.6,1.5,1.4,1.5c1.2,0,2-0.9,2-1.9V58.9z"/>
			</g>
			<g>
				<g>
					<rect x="-5.9" y="37.1" class="st1" width="9.7" height="0.5"/>
					<rect x="-6.4" y="36.6" width="10.7" height="1.5"/>
				</g>
				<g>
					<rect x="-5.9" y="41.1" class="st1" width="9.7" height="0.5"/>
					<rect x="-6.4" y="40.6" width="10.7" height="1.5"/>
				</g>
				<g>
					<rect x="-5.9" y="45.1" class="st1" width="9.7" height="0.5"/>
					<rect x="-6.4" y="44.6" width="10.7" height="1.5"/>
				</g>
			</g>
		</g>
	</g>
	<path class="st2" d="M50.2,62.3v-2h23.4c1-1.6,1.9-3.3,2.6-5.1h-26v-2h26.8c0.6-1.7,1.1-3.4,1.5-5.1H43.6v-2h35.2
		c0.3-1.7,0.4-3.4,0.5-5.1h-36v-2h36c0-1.7-0.2-3.4-0.4-5.1H50.2v-2h28.3c-0.4-1.8-0.8-3.5-1.4-5.1H50.2v-2h26.1
		c-0.7-1.8-1.6-3.5-2.6-5.1H43.6v-2h28.8c-7-10.3-18.9-17-32.3-17v78.1c13.3,0,25-6.6,32-16.7H50.2z"/>
	<path d="M40,80C17.9,80,0,62.1,0,40S17.9,0,40,0v1C18.5,1,1,18.5,1,40s17.5,39,39,39V80z"/>
	<path d="M40,80v-1c21.5,0,39-17.5,39-39S61.5,1,40,1V0c22.1,0,40,17.9,40,40S62.1,80,40,80z"/>
</g>
</svg>
